<svg width="101" height="101" viewBox="0 0 101 101" fill="none" xmlns="http://www.w3.org/2000/svg">
<path d="M52.3008 20.9102C44.0128 20.9102 36.0642 24.2026 30.2037 30.0631C24.3432 35.9236 21.0508 43.8721 21.0508 52.1602C21.0508 60.4482 24.3432 68.3967 30.2037 74.2572C36.0642 80.1178 44.0128 83.4102 52.3008 83.4102C60.5888 83.4102 68.5374 80.1178 74.3979 74.2572C80.2584 68.3967 83.5508 60.4482 83.5508 52.1602C83.5508 43.8721 80.2584 35.9236 74.3979 30.0631C68.5374 24.2026 60.5888 20.9102 52.3008 20.9102ZM29.3841 41.7435H37.7174C38.8225 41.7435 39.8823 42.1825 40.6637 42.9639C41.4451 43.7453 41.8841 44.8051 41.8841 45.9102V50.0768C41.8841 52.1602 40.3008 53.8268 38.3008 54.1185L43.1758 62.5768H38.3424L33.5508 54.2435V62.5768H29.3841V41.7435ZM50.2174 41.7435H58.5508V45.9102H50.2174V50.0768H58.5508V54.2435H50.2174V58.4102H58.5508V62.5768H50.2174C49.1124 62.5768 48.0526 62.1378 47.2712 61.3564C46.4898 60.575 46.0508 59.5152 46.0508 58.4102V45.9102C46.0508 44.8051 46.4898 43.7453 47.2712 42.9639C48.0526 42.1825 49.1124 41.7435 50.2174 41.7435V41.7435ZM66.8841 41.7435H75.2174V45.9102H66.8841V58.4102H75.2174V62.5768H66.8841C65.779 62.5768 64.7192 62.1378 63.9378 61.3564C63.1564 60.575 62.7174 59.5152 62.7174 58.4102V45.9102C62.7174 44.8051 63.1564 43.7453 63.9378 42.9639C64.7192 42.1825 65.779 41.7435 66.8841 41.7435V41.7435ZM33.5508 45.9102V50.0768H37.7174V45.9102" fill="black"/>
</svg>
